<?xml version="1.0" encoding="UTF-8" standalone="no"?><!DOCTYPE svg PUBLIC "-//W3C//DTD SVG 1.1//EN" "http://www.w3.org/Graphics/SVG/1.1/DTD/svg11.dtd"><svg width="100%" height="100%" viewBox="0 0 497 115" version="1.1" xmlns="http://www.w3.org/2000/svg" xmlns:xlink="http://www.w3.org/1999/xlink" xml:space="preserve" xmlns:serif="http://www.serif.com/" style="fill-rule:evenodd;clip-rule:evenodd;stroke-linejoin:round;stroke-miterlimit:1.41421;"><g><path d="M0,112.551l25.006,0l0,-42.648c0.051,-9.306 6.545,-15.494 14.42,-15.494c3.017,0 5.421,0.921 7.619,1.943l7.364,-20.557c-3.017,-1.738 -6.852,-2.863 -10.994,-2.863c-8.591,0 -15.443,5.011 -18.307,15.392l-0.818,0l0,-14.318l-24.29,0l0,78.545Z" style="fill-rule:nonzero;"/><path d="M88.913,114.034c20.608,0 34.16,-9.972 37.023,-25.415l-22.96,-0.664c-1.943,5.215 -7.057,8.028 -13.602,8.028c-9.614,0 -15.546,-6.392 -15.546,-16.006l0,-0.665l52.364,0.001l0,-6.239c0,-25.875 -15.75,-40.091 -38.046,-40.091c-23.727,0 -38.966,16.261 -38.966,40.602c0,25.159 15.035,40.449 39.733,40.449Zm-15.085,-49.244c0.358,-7.824 6.546,-13.756 14.83,-13.756c8.233,0 14.165,5.727 14.267,13.756l-29.097,0Z" style="fill-rule:nonzero;"/><path d="M145.458,60.136c7.005,0 13.193,-5.931 13.295,-13.295c-0.102,-7.261 -6.29,-13.142 -13.295,-13.142c-7.364,0 -13.398,5.881 -13.296,13.142c-0.102,7.364 5.932,13.295 13.296,13.295Zm0,53.898c7.005,0 13.193,-5.932 13.295,-13.295c-0.102,-7.262 -6.29,-13.142 -13.295,-13.142c-7.364,0 -13.398,5.88 -13.296,13.142c-0.102,7.363 5.932,13.295 13.296,13.295Z" style="fill-rule:nonzero;"/><path d="M182.365,112.551l26.796,0l12.273,-45.767l0.869,0l12.273,45.767l26.744,0l20.506,-78.545l-25.108,0l-10.279,49.96l-0.665,0l-11.659,-49.96l-24.494,0l-11.352,50.318l-0.665,0l-10.585,-50.318l-25.108,0l20.454,78.545Z" style="fill-rule:nonzero;"/><path d="M284.267,112.551l25.006,0l0,-42.648c0.051,-9.306 6.546,-15.494 14.421,-15.494c3.017,0 5.42,0.921 7.619,1.943l7.364,-20.557c-3.017,-1.738 -6.853,-2.863 -10.995,-2.863c-8.591,0 -15.443,5.011 -18.307,15.392l-0.818,0l0,-14.318l-24.29,0l0,78.545Z" style="fill-rule:nonzero;"/><path d="M340.556,112.551l25.006,0l0,-78.545l-25.006,0l0,78.545Zm12.528,-87.341c7.108,0 12.836,-5.625 12.836,-12.579c0,-6.955 -5.728,-12.631 -12.836,-12.631c-7.057,0 -12.835,5.676 -12.835,12.631c0,6.954 5.778,12.579 12.835,12.579Z" style="fill-rule:nonzero;"/><path d="M418.117,34.006l-14.165,0l0,-18.819l-25.005,0l0,18.819l-10.381,0l0,18.409l10.381,0l0,37.943c-0.154,15.954 10.176,23.932 27.818,23.062c6.034,-0.306 10.38,-1.534 12.784,-2.25l-3.784,-18.051c-1.074,0.256 -3.58,0.767 -5.472,0.767c-4.04,0 -6.341,-1.636 -6.341,-6.289l0,-35.182l14.165,0l0,-18.409Z" style="fill-rule:nonzero;"/><path d="M459.32,114.034c20.608,0 34.159,-9.972 37.023,-25.415l-22.96,-0.664c-1.943,5.215 -7.057,8.028 -13.602,8.028c-9.614,0 -15.546,-6.392 -15.546,-16.006l0,-0.665l52.364,0.001l0,-6.239c0,-25.875 -15.75,-40.091 -38.046,-40.091c-23.727,0 -38.966,16.261 -38.966,40.602c0,25.159 15.034,40.449 39.733,40.449Zm-15.085,-49.244c0.358,-7.824 6.546,-13.756 14.83,-13.756c8.233,0 14.164,5.727 14.267,13.756l-29.097,0Z" style="fill-rule:nonzero;"/></g></svg>