<?xml version="1.0" encoding="UTF-8" standalone="no"?><!DOCTYPE svg PUBLIC "-//W3C//DTD SVG 1.1//EN" "http://www.w3.org/Graphics/SVG/1.1/DTD/svg11.dtd"><svg width="100%" height="100%" viewBox="0 0 492 112" version="1.1" xmlns="http://www.w3.org/2000/svg" xmlns:xlink="http://www.w3.org/1999/xlink" xml:space="preserve" xmlns:serif="http://www.serif.com/" style="fill-rule:evenodd;clip-rule:evenodd;stroke-linejoin:round;stroke-miterlimit:1.41421;"><g transform="matrix(1,0,0,1,-698.214,-426.06)"><path d="M698.214,536.259l18.511,0l0,-46.176c0,-9.92 7.466,-16.926 17.131,-16.926c3.017,0 5.318,0.716 7.313,1.636l5.727,-15.341c-2.762,-1.738 -6.29,-2.863 -10.534,-2.863c-9.051,0 -16.517,5.113 -19.381,14.216l-0.818,0l0,-13.091l-17.949,0l0,78.545Z" style="fill:#fffdfd;fill-rule:nonzero;"/><path d="M784.248,537.793c18.307,0 30.886,-8.948 34.159,-22.602l-17.284,-1.943c-2.506,6.648 -8.642,10.125 -16.619,10.125c-11.966,0 -19.892,-7.875 -20.046,-21.324l54.716,0l0,-5.676c0,-27.563 -16.568,-39.682 -35.898,-39.682c-22.5,0 -37.176,16.517 -37.176,40.756c0,24.648 14.472,40.346 38.148,40.346Zm-19.739,-48.221c0.563,-10.023 7.978,-18.46 19.023,-18.46c10.636,0 17.795,7.772 17.898,18.46l-36.921,0Z" style="fill:#fffdfd;fill-rule:nonzero;"/><path d="M884.463,536.259l19.329,0l14.728,-53.079l1.074,0l14.727,53.079l19.278,0l22.245,-78.545l-18.921,0l-13.602,54.92l-0.767,0l-14.114,-54.92l-18.665,0l-14.113,55.227l-0.716,0l-13.807,-55.227l-18.869,0l22.193,78.545Z" style="fill:#fffdfd;fill-rule:nonzero;"/><path d="M983.792,536.259l18.512,0l0,-46.176c0,-9.92 7.465,-16.926 17.13,-16.926c3.017,0 5.318,0.716 7.313,1.636l5.727,-15.341c-2.761,-1.738 -6.29,-2.863 -10.534,-2.863c-9.051,0 -16.517,5.113 -19.381,14.216l-0.818,0l0,-13.091l-17.949,0l0,78.545Z" style="fill:#fffdfd;fill-rule:nonzero;"/><path d="M1038.33,536.259l18.511,0l0,-78.545l-18.511,0l0,78.545Zm9.307,-89.386c5.881,0 10.687,-4.705 10.687,-10.432c0,-5.727 -4.806,-10.381 -10.687,-10.381c-5.932,0 -10.739,4.654 -10.739,10.381c0,5.727 4.807,10.432 10.739,10.432Z" style="fill:#fffdfd;fill-rule:nonzero;"/><path d="M1110.04,457.714l-15.495,0l0,-18.818l-18.511,0l0,18.818l-11.148,0l0,14.318l11.148,0l0,43.517c-0.102,14.83 10.636,22.091 24.546,21.631c5.267,-0.103 8.897,-1.125 10.892,-1.841l-3.12,-14.421c-1.022,0.205 -3.119,0.716 -5.42,0.716c-4.654,0 -8.387,-1.636 -8.387,-9.102l0,-40.5l15.495,0l0,-14.318Z" style="fill:#fffdfd;fill-rule:nonzero;"/><path d="M1154.96,537.793c18.307,0 30.886,-8.948 34.159,-22.602l-17.284,-1.943c-2.506,6.648 -8.642,10.125 -16.619,10.125c-11.966,0 -19.892,-7.875 -20.046,-21.324l54.716,0l0,-5.676c0,-27.563 -16.568,-39.682 -35.898,-39.682c-22.5,0 -37.176,16.517 -37.176,40.756c0,24.648 14.472,40.346 38.148,40.346Zm-19.739,-48.221c0.563,-10.023 7.978,-18.46 19.023,-18.46c10.636,0 17.796,7.772 17.898,18.46l-36.921,0Z" style="fill:#fffdfd;fill-rule:nonzero;"/></g><path d="M143.628,83.746c3.168,0 5.852,1.1 8.052,3.3c2.2,2.2 3.3,4.84 3.3,7.92c0,3.08 -1.1,5.742 -3.3,7.986c-2.2,2.244 -4.884,3.366 -8.052,3.366c-3.08,0 -5.72,-1.122 -7.92,-3.366c-2.2,-2.244 -3.3,-4.906 -3.3,-7.986c0,-3.08 1.1,-5.72 3.3,-7.92c2.2,-2.2 4.84,-3.3 7.92,-3.3Zm0,-46.332c3.168,0 5.852,1.1 8.052,3.3c2.2,2.2 3.3,4.84 3.3,7.92c0,3.08 -1.1,5.742 -3.3,7.986c-2.2,2.244 -4.884,3.366 -8.052,3.366c-3.08,0 -5.72,-1.122 -7.92,-3.366c-2.2,-2.244 -3.3,-4.906 -3.3,-7.986c0,-3.08 1.1,-5.72 3.3,-7.92c2.2,-2.2 4.84,-3.3 7.92,-3.3Z" style="fill:#fffdfd;fill-rule:nonzero;"/></svg>